<mxfile host="app.diagrams.net" modified="2022-01-31T07:52:48.599Z" agent="5.0 (Windows NT 10.0; Win64; x64) AppleWebKit/537.36 (KHTML, like Gecko) Chrome/96.0.4664.93 Safari/537.36" etag="N4wl816qBiyBErLPLgJH" version="16.0.3" type="github">
  <diagram id="DzH0w7ahjAP1ygh-yPZ5" name="Page-1">
    <mxGraphModel dx="1673" dy="896" grid="1" gridSize="10" guides="1" tooltips="1" connect="1" arrows="1" fold="1" page="1" pageScale="1" pageWidth="1654" pageHeight="2336" math="0" shadow="0">
      <root>
        <mxCell id="0" />
        <mxCell id="1" parent="0" />
        <mxCell id="IWwzbg3mLCVQNY44W7K9-39" style="edgeStyle=orthogonalEdgeStyle;rounded=0;orthogonalLoop=1;jettySize=auto;html=1;exitX=0.5;exitY=1;exitDx=0;exitDy=0;entryX=0.5;entryY=0;entryDx=0;entryDy=0;entryPerimeter=0;fontSize=20;strokeWidth=2;" edge="1" parent="1" source="IWwzbg3mLCVQNY44W7K9-2" target="IWwzbg3mLCVQNY44W7K9-28">
          <mxGeometry relative="1" as="geometry" />
        </mxCell>
        <mxCell id="IWwzbg3mLCVQNY44W7K9-2" value="push mario" style="rounded=1;whiteSpace=wrap;html=1;strokeWidth=2;fontSize=20;" vertex="1" parent="1">
          <mxGeometry x="280" y="270" width="140" height="80" as="geometry" />
        </mxCell>
        <mxCell id="IWwzbg3mLCVQNY44W7K9-12" value="" style="verticalLabelPosition=bottom;verticalAlign=top;html=1;shape=mxgraph.flowchart.parallel_mode;pointerEvents=1;strokeWidth=2;" vertex="1" parent="1">
          <mxGeometry x="762.5" y="809" width="95" height="40" as="geometry" />
        </mxCell>
        <mxCell id="IWwzbg3mLCVQNY44W7K9-18" value="DelayQ" style="text;html=1;strokeColor=none;fillColor=none;align=center;verticalAlign=middle;whiteSpace=wrap;rounded=0;fontSize=20;" vertex="1" parent="1">
          <mxGeometry x="780" y="869" width="60" height="30" as="geometry" />
        </mxCell>
        <mxCell id="IWwzbg3mLCVQNY44W7K9-34" style="edgeStyle=orthogonalEdgeStyle;rounded=0;orthogonalLoop=1;jettySize=auto;html=1;exitX=0.5;exitY=1;exitDx=0;exitDy=0;exitPerimeter=0;entryX=0.5;entryY=0;entryDx=0;entryDy=0;entryPerimeter=0;fontSize=20;endSize=6;strokeWidth=2;" edge="1" parent="1" source="IWwzbg3mLCVQNY44W7K9-28" target="IWwzbg3mLCVQNY44W7K9-33">
          <mxGeometry relative="1" as="geometry" />
        </mxCell>
        <mxCell id="IWwzbg3mLCVQNY44W7K9-41" value="Y" style="edgeLabel;html=1;align=center;verticalAlign=middle;resizable=0;points=[];fontSize=20;" vertex="1" connectable="0" parent="IWwzbg3mLCVQNY44W7K9-34">
          <mxGeometry x="-0.2308" y="1" relative="1" as="geometry">
            <mxPoint x="-2" y="10" as="offset" />
          </mxGeometry>
        </mxCell>
        <mxCell id="IWwzbg3mLCVQNY44W7K9-35" style="edgeStyle=orthogonalEdgeStyle;rounded=0;orthogonalLoop=1;jettySize=auto;html=1;exitX=1;exitY=0.5;exitDx=0;exitDy=0;exitPerimeter=0;fontSize=20;strokeWidth=2;" edge="1" parent="1" source="IWwzbg3mLCVQNY44W7K9-28" target="IWwzbg3mLCVQNY44W7K9-32">
          <mxGeometry relative="1" as="geometry" />
        </mxCell>
        <mxCell id="IWwzbg3mLCVQNY44W7K9-42" value="N" style="edgeLabel;html=1;align=center;verticalAlign=middle;resizable=0;points=[];fontSize=20;" vertex="1" connectable="0" parent="IWwzbg3mLCVQNY44W7K9-35">
          <mxGeometry x="-0.1663" relative="1" as="geometry">
            <mxPoint x="21" as="offset" />
          </mxGeometry>
        </mxCell>
        <mxCell id="IWwzbg3mLCVQNY44W7K9-28" value="suc" style="strokeWidth=2;html=1;shape=mxgraph.flowchart.decision;whiteSpace=wrap;fontSize=18;fillColor=#dae8fc;strokeColor=#6c8ebf;shadow=0;" vertex="1" parent="1">
          <mxGeometry x="287.5" y="415" width="125.5" height="170" as="geometry" />
        </mxCell>
        <mxCell id="IWwzbg3mLCVQNY44W7K9-38" style="edgeStyle=orthogonalEdgeStyle;rounded=0;orthogonalLoop=1;jettySize=auto;html=1;exitX=0.5;exitY=1;exitDx=0;exitDy=0;exitPerimeter=0;fontSize=20;strokeWidth=2;" edge="1" parent="1" source="IWwzbg3mLCVQNY44W7K9-30" target="IWwzbg3mLCVQNY44W7K9-2">
          <mxGeometry relative="1" as="geometry" />
        </mxCell>
        <mxCell id="IWwzbg3mLCVQNY44W7K9-30" value="&lt;span style=&quot;font-size: 20px;&quot;&gt;start&lt;/span&gt;" style="strokeWidth=2;html=1;shape=mxgraph.flowchart.start_2;whiteSpace=wrap;fontSize=20;fillColor=#f8cecc;strokeColor=#b85450;" vertex="1" parent="1">
          <mxGeometry x="275" y="90" width="150" height="80" as="geometry" />
        </mxCell>
        <mxCell id="IWwzbg3mLCVQNY44W7K9-50" style="edgeStyle=orthogonalEdgeStyle;rounded=0;orthogonalLoop=1;jettySize=auto;html=1;exitX=1;exitY=0.5;exitDx=0;exitDy=0;exitPerimeter=0;entryX=1;entryY=0.5;entryDx=0;entryDy=0;entryPerimeter=0;fontSize=20;sketch=0;strokeWidth=2;" edge="1" parent="1" source="IWwzbg3mLCVQNY44W7K9-32" target="IWwzbg3mLCVQNY44W7K9-46">
          <mxGeometry relative="1" as="geometry">
            <Array as="points">
              <mxPoint x="1010" y="499" />
              <mxPoint x="1010" y="1080" />
            </Array>
          </mxGeometry>
        </mxCell>
        <mxCell id="IWwzbg3mLCVQNY44W7K9-57" value="N" style="edgeLabel;html=1;align=center;verticalAlign=middle;resizable=0;points=[];fontSize=20;" vertex="1" connectable="0" parent="IWwzbg3mLCVQNY44W7K9-50">
          <mxGeometry x="-0.7251" y="-3" relative="1" as="geometry">
            <mxPoint x="1" y="299" as="offset" />
          </mxGeometry>
        </mxCell>
        <mxCell id="IWwzbg3mLCVQNY44W7K9-53" style="edgeStyle=orthogonalEdgeStyle;rounded=0;sketch=0;orthogonalLoop=1;jettySize=auto;html=1;exitX=0.5;exitY=1;exitDx=0;exitDy=0;exitPerimeter=0;fontSize=20;strokeWidth=2;" edge="1" parent="1" source="IWwzbg3mLCVQNY44W7K9-32" target="IWwzbg3mLCVQNY44W7K9-48">
          <mxGeometry relative="1" as="geometry" />
        </mxCell>
        <mxCell id="IWwzbg3mLCVQNY44W7K9-32" value="&lt;span style=&quot;font-size: 20px;&quot;&gt;need retry&lt;/span&gt;" style="strokeWidth=2;html=1;shape=mxgraph.flowchart.decision;whiteSpace=wrap;shadow=0;fontSize=18;fillColor=#dae8fc;strokeColor=#6c8ebf;" vertex="1" parent="1">
          <mxGeometry x="755" y="417" width="110" height="165" as="geometry" />
        </mxCell>
        <mxCell id="IWwzbg3mLCVQNY44W7K9-49" style="edgeStyle=orthogonalEdgeStyle;rounded=0;orthogonalLoop=1;jettySize=auto;html=1;exitX=0.5;exitY=1;exitDx=0;exitDy=0;exitPerimeter=0;entryX=0.5;entryY=0;entryDx=0;entryDy=0;entryPerimeter=0;fontSize=20;strokeWidth=2;" edge="1" parent="1" source="IWwzbg3mLCVQNY44W7K9-33" target="IWwzbg3mLCVQNY44W7K9-46">
          <mxGeometry relative="1" as="geometry" />
        </mxCell>
        <mxCell id="IWwzbg3mLCVQNY44W7K9-55" value="N" style="edgeLabel;html=1;align=center;verticalAlign=middle;resizable=0;points=[];fontSize=20;" vertex="1" connectable="0" parent="IWwzbg3mLCVQNY44W7K9-49">
          <mxGeometry x="-0.2727" y="-1" relative="1" as="geometry">
            <mxPoint y="10" as="offset" />
          </mxGeometry>
        </mxCell>
        <mxCell id="IWwzbg3mLCVQNY44W7K9-52" style="edgeStyle=orthogonalEdgeStyle;rounded=0;sketch=0;orthogonalLoop=1;jettySize=auto;html=1;exitX=1;exitY=0.5;exitDx=0;exitDy=0;exitPerimeter=0;fontSize=20;strokeWidth=2;" edge="1" parent="1" source="IWwzbg3mLCVQNY44W7K9-33" target="IWwzbg3mLCVQNY44W7K9-47">
          <mxGeometry relative="1" as="geometry" />
        </mxCell>
        <mxCell id="IWwzbg3mLCVQNY44W7K9-56" value="Y" style="edgeLabel;html=1;align=center;verticalAlign=middle;resizable=0;points=[];fontSize=20;" vertex="1" connectable="0" parent="IWwzbg3mLCVQNY44W7K9-52">
          <mxGeometry x="0.2245" relative="1" as="geometry">
            <mxPoint x="-12" as="offset" />
          </mxGeometry>
        </mxCell>
        <mxCell id="IWwzbg3mLCVQNY44W7K9-33" value="&lt;span style=&quot;font-size: 18px;&quot;&gt;need retry&lt;/span&gt;" style="strokeWidth=2;html=1;shape=mxgraph.flowchart.decision;whiteSpace=wrap;shadow=0;fontSize=18;fillColor=#dae8fc;strokeColor=#6c8ebf;" vertex="1" parent="1">
          <mxGeometry x="294" y="750" width="112" height="161" as="geometry" />
        </mxCell>
        <mxCell id="IWwzbg3mLCVQNY44W7K9-46" value="&lt;span style=&quot;font-size: 20px&quot;&gt;end&lt;/span&gt;" style="strokeWidth=2;html=1;shape=mxgraph.flowchart.start_2;whiteSpace=wrap;fontSize=20;fillColor=#f8cecc;strokeColor=#b85450;" vertex="1" parent="1">
          <mxGeometry x="275" y="1040" width="150" height="80" as="geometry" />
        </mxCell>
        <mxCell id="IWwzbg3mLCVQNY44W7K9-51" style="edgeStyle=orthogonalEdgeStyle;rounded=0;sketch=0;orthogonalLoop=1;jettySize=auto;html=1;exitX=1;exitY=0.5;exitDx=0;exitDy=0;entryX=0;entryY=0.5;entryDx=0;entryDy=0;entryPerimeter=0;fontSize=20;strokeWidth=2;" edge="1" parent="1" source="IWwzbg3mLCVQNY44W7K9-47" target="IWwzbg3mLCVQNY44W7K9-12">
          <mxGeometry relative="1" as="geometry" />
        </mxCell>
        <mxCell id="IWwzbg3mLCVQNY44W7K9-47" value="remove" style="rounded=1;whiteSpace=wrap;html=1;strokeWidth=2;fontSize=20;" vertex="1" parent="1">
          <mxGeometry x="500" y="789" width="140" height="80" as="geometry" />
        </mxCell>
        <mxCell id="IWwzbg3mLCVQNY44W7K9-54" style="edgeStyle=orthogonalEdgeStyle;rounded=0;sketch=0;orthogonalLoop=1;jettySize=auto;html=1;exitX=0.5;exitY=1;exitDx=0;exitDy=0;entryX=0.5;entryY=0;entryDx=0;entryDy=0;entryPerimeter=0;fontSize=20;strokeWidth=2;" edge="1" parent="1" source="IWwzbg3mLCVQNY44W7K9-48" target="IWwzbg3mLCVQNY44W7K9-12">
          <mxGeometry relative="1" as="geometry" />
        </mxCell>
        <mxCell id="IWwzbg3mLCVQNY44W7K9-48" value="push" style="rounded=1;whiteSpace=wrap;html=1;strokeWidth=2;fontSize=20;" vertex="1" parent="1">
          <mxGeometry x="740" y="659" width="140" height="80" as="geometry" />
        </mxCell>
        <mxCell id="IWwzbg3mLCVQNY44W7K9-58" value="Y" style="edgeLabel;html=1;align=center;verticalAlign=middle;resizable=0;points=[];fontSize=20;" vertex="1" connectable="0" parent="1">
          <mxGeometry x="923" y="606" as="geometry">
            <mxPoint x="-114" y="5" as="offset" />
          </mxGeometry>
        </mxCell>
      </root>
    </mxGraphModel>
  </diagram>
</mxfile>
